HIERARCHY
ROOT Hips
{
  OFFSET -33.9132 29.2015 117.021
  CHANNELS 6 Xposition Yposition Zposition Zrotation Xrotation Yrotation
  JOINT LeftUpLeg
  {
    OFFSET 8.64259 1.95398 -2.38835
    CHANNELS 3 Zrotation Xrotation Yrotation
    JOINT LeftLeg
    {
      OFFSET 43.7702 0 0
      CHANNELS 3 Zrotation Xrotation Yrotation
      JOINT LeftFoot
      {
        OFFSET 40.6238 0 0
        CHANNELS 3 Zrotation Xrotation Yrotation
        JOINT LeftToeBase
        {
          OFFSET 12.7242 0 0
          CHANNELS 3 Zrotation Xrotation Yrotation
          End Site
          {
            OFFSET 0 0 0
          }
        }
      }
    }
  }
  JOINT RightUpLeg
  {
    OFFSET -8.2249 1.95398 -2.59336
    CHANNELS 3 Zrotation Xrotation Yrotation
    JOINT RightLeg
    {
      OFFSET 43.5653 0 0
      CHANNELS 3 Zrotation Xrotation Yrotation
      JOINT RightFoot
      {
        OFFSET 40.6238 0 0
        CHANNELS 3 Zrotation Xrotation Yrotation
        JOINT RightToeBase
        {
          OFFSET 12.7242 0 0
          CHANNELS 3 Zrotation Xrotation Yrotation
          End Site
          {
            OFFSET 0 0 0
          }
        }
      }
    }
  }
  JOINT Spine
  {
    OFFSET 0.165834 0.87714 6.61349
    CHANNELS 3 Zrotation Xrotation Yrotation
    JOINT Spine1
    {
      OFFSET 7.38963 1.71661e-005 0
      CHANNELS 3 Zrotation Xrotation Yrotation
      JOINT Spine2
      {
        OFFSET 11.9445 1.14441e-005 0
        CHANNELS 3 Zrotation Xrotation Yrotation
        JOINT Spine3
        {
          OFFSET 14.7254 4.19617e-005 0
          CHANNELS 3 Zrotation Xrotation Yrotation
          JOINT Spine4
          {
            OFFSET 10.9679 0 0
            CHANNELS 3 Zrotation Xrotation Yrotation
            JOINT RightShoulder
            {
              OFFSET 2.46616 -1.6653 3.69651
              CHANNELS 3 Zrotation Xrotation Yrotation
              JOINT RightArm
              {
                OFFSET 13.0012 0 0
                CHANNELS 3 Zrotation Xrotation Yrotation
                JOINT RightForeArm
                {
                  OFFSET 28.7848 1.62311e-005 0
                  CHANNELS 3 Zrotation Xrotation Yrotation
                  JOINT RightHand
                  {
                    OFFSET 26.5688 1.62095e-005 0
                    CHANNELS 3 Zrotation Xrotation Yrotation
                    End Site
                    {
                      OFFSET 0 0 0
                    }
                  }
                }
              }
            }
            JOINT LeftShoulder
            {
              OFFSET 2.38034 -1.29275 -3.7523
              CHANNELS 3 Zrotation Xrotation Yrotation
              JOINT LeftArm
              {
                OFFSET 16.3182 6.07031e-005 0
                CHANNELS 3 Zrotation Xrotation Yrotation
                JOINT LeftForeArm
                {
                  OFFSET 27.0901 0 0
                  CHANNELS 3 Zrotation Xrotation Yrotation
                  JOINT LeftHand
                  {
                    OFFSET 24.5451 1.51738e-005 0
                    CHANNELS 3 Zrotation Xrotation Yrotation
                    End Site
                    {
                      OFFSET 0 0 0
                    }
                  }
                }
              }
            }
            JOINT Neck
            {
              OFFSET 5.0226 -0.0266342 0
              CHANNELS 3 Zrotation Xrotation Yrotation
              JOINT Head
              {
                OFFSET 6.69364 2.86102e-005 0
                CHANNELS 3 Zrotation Xrotation Yrotation
                End Site
                {
                  OFFSET 0 0 0
                }
              }
            }
          }
        }
      }
    }
  }
}
MOTION
Frames:	9
Frame Time:	0.0416667
25.4615 101 22.7133 -133.036 -81.9459 -133.617 -174.108 -0.892392 88.8349 -14.6253 -2.78526 -0.537949 71.4669 6.03286 -2.90727 14.0171 -10.6762 5.76774 173.57 -0.764417 88.9476 -14.2468 -9.76141 -0.567821 67.6956 -5.12227 1.13071 23.4082 1.08285 4.67553 0.449472 7.3779 -90.0471 12.1191 0.871248 -0.190169 0.448449 0.862035 -0.228339 -22.089 0.888114 0.0804878 -2.07639 0.888118 0.0804859 92.4315 -26.8635 -102.936 54.9962 1.84847 -7.07432 -5.44609 -44.0829 -5.53851 -15.9726 1.67421 -17.6651 -86.585 -47.128 83.3855 -26.3802 -3.13339 -16.418 -13.2056 30.7894 -0.0231393 5.13464 -0.38394 -13.7612 6.69264 -0.728405 -1.68101 -4.85244 -0.420773 2.06464 
25.5386 100.867 22.7496 -135.943 -82.7362 -136.434 -174.359 -0.587275 88.7867 -14.7106 -1.74841 -0.261321 71.8846 6.30784 -2.95717 14.4068 -11.0447 6.71852 173.526 -0.903725 88.9722 -13.4075 -8.75853 -0.34757 67.5356 -5.04752 1.66539 24.3756 0.73673 4.47317 0.399868 7.36409 -90.1012 12.1468 0.747041 -0.284686 0.476024 0.733793 -0.317302 -22.0608 0.798067 -0.0469963 -2.04818 0.798067 -0.0469975 92.49 -26.678 -102.877 54.3116 2.21637 -6.9429 -5.68771 -47.2291 -5.6942 -17.3047 1.89514 -18.1494 -87.0551 -48.2365 82.8462 -25.7905 -3.6723 -16.9405 -13.2913 28.8543 -0.0226956 7.96091 -0.638607 -12.8247 6.31164 -0.840136 -0.795203 -3.9294 -0.682172 1.18276 
25.6055 100.9 22.8116 -136.191 -82.6528 -136.922 -174.583 -0.692769 88.3372 -14.5632 -1.80194 -0.174308 71.2392 5.97409 -2.7302 15.7094 -10.5595 7.19849 173.283 -0.909847 88.6384 -13.5958 -8.98426 -0.328205 67.8016 -5.22784 1.41534 24.0322 0.751164 4.91899 0.42979 7.36965 -90.051 12.1357 0.830279 -0.193335 0.464975 0.820968 -0.229697 -22.0723 0.849996 0.0651533 -2.05967 0.849994 0.0651493 92.5824 -26.8907 -102.609 54.3681 2.20189 -6.91136 -5.81601 -48.7676 -5.78144 -17.8591 1.92513 -17.9053 -86.9618 -47.4467 82.8548 -26.8657 -4.40197 -17.0789 -12.877 29.2509 -0.022783 7.33341 -0.559819 -12.8203 6.13412 -0.890772 -1.34704 -3.80832 -0.630597 1.71064 
25.5598 100.887 22.9729 -134.415 -82.9615 -134.891 -174.471 -0.351897 88.6513 -14.6943 -1.60909 -0.187245 71.4814 6.15298 -2.57805 15.5106 -10.5337 6.9638 173.511 -0.921946 89.0198 -13.2036 -8.73016 -0.308073 67.7045 -5.24534 1.23006 23.862 0.799371 4.99604 0.453991 7.31967 -90.0951 12.2361 0.857332 -0.285405 0.565352 0.843947 -0.322874 -21.9721 0.90347 -0.0145315 -1.95943 0.903472 -0.0145301 92.6347 -26.8807 -102.503 54.3854 2.14921 -7.0307 -5.69257 -47.2905 -5.69748 -17.013 1.85615 -18.1054 -87.104 -47.5573 82.6539 -26.5163 -4.13806 -16.9361 -12.9764 29.8262 -0.022913 7.18289 -0.512192 -12.5186 6.14339 -1.01208 -1.33833 -3.86571 -0.753564 1.83832 
25.5516 100.918 23.1444 -132.25 -82.7886 -132.528 -174.222 -0.560491 88.9992 -14.5291 -1.75198 -0.349707 71.665 6.20497 -2.94611 15.4111 -10.9623 7.55659 173.778 -0.888501 89.3269 -13.4341 -8.68444 -0.460619 67.7585 -5.1896 1.17921 23.6299 0.909951 4.94713 0.462987 7.30499 -90.0886 12.2652 0.878179 -0.275534 0.594562 0.865211 -0.313929 -21.943 0.920388 0.00116194 -1.93032 0.920393 0.00115658 92.2644 -27.2009 -103.171 54.3398 2.14415 -7.1008 -5.61224 -46.283 -5.64449 -16.954 1.82422 -17.939 -86.7905 -47.1362 83.0673 -26.5543 -3.75305 -16.9473 -13.1457 30.9007 -0.0231661 6.61123 -0.478919 -13.0408 6.07438 -0.902604 -1.78003 -3.63247 -0.559384 1.97037 
25.6312 100.871 23.2962 -131.385 -83.0079 -132.103 -174.569 -0.551916 88.4033 -14.2844 -2.02121 -0.266045 71.5022 6.25511 -2.80993 15.3037 -10.8048 7.19891 173.459 -0.281968 88.7142 -13.9511 -9.12187 -0.425418 67.584 -4.88718 1.75387 24.5189 0.711731 4.35149 0.461515 7.28284 -90.0935 12.3097 0.880961 -0.285142 0.63899 0.859496 -0.323294 -21.8985 0.918225 -0.00959529 -1.88587 0.918229 -0.00960107 92.5149 -26.7248 -102.808 55.0087 2.00977 -6.63612 -5.52466 -45.1423 -5.58796 -19.8179 2.17888 -18.1153 -87.2046 -48.3267 82.6331 -25.6239 -3.49946 -16.794 -13.378 29.7904 -0.0229048 6.84824 -0.474494 -12.5186 5.9416 -1.01686 -0.996198 -3.49273 -0.818868 1.64047 
25.6356 100.849 23.4263 -130.653 -83.0119 -131.639 -174.622 -0.652434 88.1507 -14.1555 -2.03275 -0.368684 71.4364 6.33778 -2.62657 15.6275 -10.5763 7.14649 173.396 -0.110893 88.4729 -14.3202 -8.89927 -0.518653 68.1394 -5.21783 1.64356 24.0666 0.739591 4.90956 0.44882 7.27906 -90.0309 12.3167 0.876906 -0.160819 0.646012 0.869431 -0.199291 -21.8915 0.885124 0.110315 -1.87886 0.885127 0.110316 92.4079 -27.0992 -102.905 54.4996 2.1553 -6.87294 -5.50384 -44.8652 -5.57459 -17.5623 2.02083 -18.7776 -86.9515 -47.658 82.9069 -26.4939 -4.04509 -16.7459 -12.9919 30.5649 -0.0230856 6.29769 -0.417425 -12.5715 5.82812 -1.04969 -1.60197 -3.48379 -0.737947 1.80444 
25.6243 100.838 23.6079 -130.478 -83.0867 -131.347 -174.635 -0.625112 88.2504 -14.3249 -2.16828 -0.276665 71.6302 6.31139 -2.98772 15.9247 -10.6765 7.60034 173.408 -0.449498 88.5656 -13.7911 -8.98821 -0.466771 68.0496 -5.25366 1.4768 24.3177 0.711182 4.64537 0.44409 7.28164 -90.0566 12.3117 0.855751 -0.20956 0.641009 0.8457 -0.247032 -21.8964 0.879164 0.0573379 -1.88376 0.879172 0.0573346 92.5375 -26.9589 -102.681 54.4279 2.14499 -6.98943 -5.58732 -45.9626 -5.62796 -16.8872 1.87356 -18.3336 -87.029 -47.7622 82.8054 -26.6157 -4.48118 -16.9495 -12.8425 30.1991 -0.0229993 7.1633 -0.468112 -12.0814 5.83312 -0.93991 -1.19895 -3.67098 -0.706327 1.37212 
25.5679 100.874 23.7927 -131.772 -82.9892 -132.714 -174.542 -1.2457 88.2745 -13.6734 -1.9989 -0.362289 71.4774 6.48229 -2.80204 15.775 -10.6274 7.37338 173.374 -0.537101 88.5019 -14.2266 -9.03098 -0.537508 67.9397 -4.92157 1.74676 24.5806 0.729736 4.19704 0.439258 7.3071 -90.0674 12.2608 0.841089 -0.229009 0.590088 0.830196 -0.265808 -21.9473 0.871019 0.0343838 -1.93461 0.871024 0.034382 92.6839 -26.7583 -102.44 54.5715 2.05727 -7.04537 -5.60832 -46.2327 -5.64192 -17.1649 1.80888 -17.67 -87.0837 -47.9635 82.7557 -26.0558 -3.57078 -16.9306 -13.4443 26.7129 -0.022253 9.67907 -0.654321 -11.239 5.86414 -0.860333 -1.03577 -3.73205 -0.66213 1.68255 
